G04 ================== begin FILE IDENTIFICATION RECORD ==================*
G04 Layout Name:  PCBP1FINALultimul.brd*
G04 Film Name:    SMTOP*
G04 File Format:  Gerber RS274X*
G04 File Origin:  Cadence Allegro 17.2-S025*
G04 Origin Date:  Thu Dec 12 16:54:27 2024*
G04 *
G04 Layer:  VIA CLASS/SOLDERMASK_TOP*
G04 Layer:  PIN/SOLDERMASK_TOP*
G04 Layer:  DRC ERROR CLASS/SOLDERMASK_TOP*
G04 *
G04 Offset:    (0.00 0.00)*
G04 Mirror:    No*
G04 Mode:      Positive*
G04 Rotation:  0*
G04 FullContactRelief:  No*
G04 UndefLineWidth:     0.30*
G04 ================== end FILE IDENTIFICATION RECORD ====================*
%FSLAX25Y25*MOIN*%
%IR0*IPPOS*OFA0.00000B0.00000*MIA0B0*SFA1.00000B1.00000*%
%ADD15R,.112X.072*%
%ADD12C,.044*%
%ADD14R,.06X.06*%
%ADD13R,.06112X.06112*%
%ADD11C,.07874*%
%ADD10R,.13408X.08487*%
%ADD18R,.046X.06*%
%ADD17R,.06X.046*%
%ADD19R,.091X.063*%
%ADD16R,.09268X.06141*%
%LPD*%
G75*
G54D10*
X41400Y17700D03*
X19900Y109000D03*
X39500Y144900D03*
X141500Y78900D03*
G54D11*
X20000Y19900D03*
Y137400D03*
X137500Y19900D03*
Y137400D03*
G54D12*
X28500Y20500D03*
X16000Y36500D03*
X38000Y99400D03*
X54500D03*
X85000Y38400D03*
X92500Y40000D03*
X74500Y99500D03*
X112500Y40000D03*
G54D13*
X35945Y36900D03*
X45000D03*
G54D14*
X16000Y44000D03*
Y52400D03*
X40500Y81900D03*
X39500Y113900D03*
Y122300D03*
X65000Y48000D03*
X48900Y81900D03*
X65000Y56400D03*
X57000Y136400D03*
Y113900D03*
Y122300D03*
Y144800D03*
X91500Y47900D03*
X79000D03*
X91500Y56300D03*
X79000D03*
X93500Y136400D03*
X74500D03*
X93500Y113900D03*
Y122300D03*
X74500Y113900D03*
Y122300D03*
X93500Y144800D03*
X74500D03*
X104500Y47900D03*
X104000Y25900D03*
X112400D03*
X117500Y47900D03*
X113000Y78900D03*
X121400D03*
X104500Y56300D03*
X117500D03*
X113000Y136400D03*
Y144800D03*
G54D15*
X20000Y78100D03*
Y91100D03*
X141500Y43900D03*
Y56900D03*
X140500Y104400D03*
Y117400D03*
G54D16*
X40472Y59144D03*
G54D17*
X59500Y19700D03*
Y27400D03*
X67500Y23600D03*
X80000Y20200D03*
Y27900D03*
X88000Y24100D03*
G54D18*
X64000Y78900D03*
X71700D03*
X67800Y86900D03*
X88000Y78900D03*
X95700D03*
X91800Y86900D03*
G54D19*
X113000Y112300D03*
Y104400D03*
M02*
