G04 ================== begin FILE IDENTIFICATION RECORD ==================*
G04 Layout Name:  PCBP1FINALultimul.brd*
G04 Film Name:    SILKTOP*
G04 File Format:  Gerber RS274X*
G04 File Origin:  Cadence Allegro 17.2-S025*
G04 Origin Date:  Thu Dec 12 16:54:27 2024*
G04 *
G04 Layer:  REF DES/SILKSCREEN_TOP*
G04 Layer:  PACKAGE GEOMETRY/SILKSCREEN_TOP*
G04 Layer:  BOARD GEOMETRY/SILKSCREEN_TOP*
G04 *
G04 Offset:    (0.00 0.00)*
G04 Mirror:    No*
G04 Mode:      Positive*
G04 Rotation:  0*
G04 FullContactRelief:  No*
G04 UndefLineWidth:     0.30*
G04 ================== end FILE IDENTIFICATION RECORD ====================*
%FSLAX25Y25*MOIN*%
%IR0*IPPOS*OFA0.00000B0.00000*MIA0B0*SFA1.00000B1.00000*%
%ADD10C,.0003*%
%ADD11C,.006*%
%ADD12C,.00787*%
G75*
%LPD*%
G75*
G54D10*
G01X9067Y57400D02*
Y59900D01*
X9733D01*
X9947Y59775D01*
X10080Y59608D01*
X10133Y59275D01*
X10080Y58942D01*
X9920Y58733D01*
X9733Y58608D01*
X9067D01*
G01X9733D02*
X10133Y57400D01*
G01X11800D02*
Y59900D01*
X11480Y59400D01*
G01Y57400D02*
X12120D01*
G01X14000Y59900D02*
X13787Y59817D01*
X13627Y59608D01*
X13520Y59358D01*
X13440Y59025D01*
X13413Y58650D01*
X13440Y58275D01*
X13520Y57942D01*
X13627Y57692D01*
X13787Y57483D01*
X14000Y57400D01*
X14213Y57483D01*
X14373Y57692D01*
X14480Y57942D01*
X14560Y58275D01*
X14587Y58650D01*
X14560Y59025D01*
X14480Y59358D01*
X14373Y59608D01*
X14213Y59817D01*
X14000Y59900D01*
G01X6767Y84100D02*
X6900Y83850D01*
X7060Y83683D01*
X7247Y83600D01*
X7460Y83683D01*
X7620Y83850D01*
X7780Y84100D01*
X7833Y84433D01*
Y86100D01*
G01X8913Y84100D02*
X9073Y83808D01*
X9287Y83642D01*
X9527Y83600D01*
X9740Y83642D01*
X9953Y83850D01*
X10087Y84100D01*
X10113Y84350D01*
X10060Y84642D01*
X9873Y84850D01*
X9687Y84933D01*
X9447D01*
G01X9687D02*
X9847Y85058D01*
X9980Y85267D01*
X10033Y85517D01*
X9980Y85767D01*
X9847Y85975D01*
X9607Y86100D01*
X9367Y86058D01*
X9127Y85892D01*
G01X24133Y6900D02*
X24800Y9400D01*
X25467Y6900D01*
G01X25227Y7775D02*
X24373D01*
G01X26547Y6900D02*
Y8567D01*
G01Y8150D02*
X26653Y8358D01*
X26813Y8525D01*
X27027Y8567D01*
X27213Y8525D01*
X27373Y8358D01*
X27453Y8067D01*
Y6900D01*
G01X29680Y9400D02*
Y6900D01*
G01Y7275D02*
X29573Y7067D01*
X29413Y6942D01*
X29227Y6900D01*
X29013Y6983D01*
X28853Y7192D01*
X28747Y7442D01*
X28720Y7733D01*
X28747Y8025D01*
X28853Y8275D01*
X29013Y8483D01*
X29227Y8567D01*
X29413Y8525D01*
X29547Y8442D01*
X29680Y8275D01*
G01X31027Y6900D02*
Y8567D01*
G01Y8233D02*
X31160Y8400D01*
X31293Y8525D01*
X31480Y8567D01*
X31613Y8525D01*
X31773Y8400D01*
G01X33200Y8025D02*
X34053D01*
X33973Y8317D01*
X33840Y8483D01*
X33653Y8567D01*
X33467Y8525D01*
X33307Y8400D01*
X33200Y8108D01*
X33147Y7858D01*
Y7608D01*
X33200Y7358D01*
X33333Y7108D01*
X33493Y6942D01*
X33680Y6900D01*
X33867Y6983D01*
X34053Y7233D01*
G01X35800Y8567D02*
Y6900D01*
G01Y9233D02*
X35747Y9275D01*
Y9358D01*
X35800Y9400D01*
X35853Y9358D01*
Y9275D01*
X35800Y9233D01*
G01X39507Y6900D02*
Y9400D01*
X40200Y7317D01*
X40893Y9400D01*
Y6900D01*
G01X42400Y8567D02*
Y6900D01*
G01Y9233D02*
X42347Y9275D01*
Y9358D01*
X42400Y9400D01*
X42453Y9358D01*
Y9275D01*
X42400Y9233D01*
G01X44147Y6900D02*
Y9400D01*
G01Y8192D02*
X44280Y8400D01*
X44413Y8525D01*
X44627Y8567D01*
X44787Y8525D01*
X44973Y8358D01*
X45053Y8108D01*
Y6900D01*
G01X47280D02*
Y8567D01*
G01Y8275D02*
X47173Y8442D01*
X47013Y8525D01*
X46827Y8567D01*
X46640Y8483D01*
X46480Y8317D01*
X46373Y8067D01*
X46320Y7733D01*
X46373Y7400D01*
X46480Y7150D01*
X46640Y6983D01*
X46827Y6900D01*
X47013Y6942D01*
X47173Y7067D01*
X47280Y7233D01*
G01X49000Y8567D02*
Y6900D01*
G01Y9233D02*
X48947Y9275D01*
Y9358D01*
X49000Y9400D01*
X49053Y9358D01*
Y9275D01*
X49000Y9233D01*
G01X50853Y7733D02*
X51547D01*
G01X53987Y9192D02*
X53827Y9317D01*
X53640Y9400D01*
X53427D01*
X53187Y9275D01*
X53000Y9067D01*
X52867Y8817D01*
X52760Y8400D01*
X52733Y8025D01*
X52787Y7650D01*
X52867Y7400D01*
X53027Y7150D01*
X53213Y6983D01*
X53400Y6900D01*
X53587D01*
X53773Y6983D01*
X53933Y7108D01*
X54067Y7275D01*
G01X55600Y6900D02*
X55440Y6942D01*
X55280Y7108D01*
X55173Y7400D01*
X55120Y7733D01*
X55173Y8067D01*
X55280Y8358D01*
X55440Y8525D01*
X55600Y8567D01*
X55760Y8525D01*
X55920Y8358D01*
X56027Y8067D01*
X56053Y7733D01*
X56027Y7400D01*
X55920Y7108D01*
X55760Y6942D01*
X55600Y6900D01*
G01X57400Y7192D02*
X57533Y7025D01*
X57720Y6900D01*
X57880D01*
X58040Y6983D01*
X58147Y7108D01*
X58200Y7275D01*
X58173Y7525D01*
X58067Y7650D01*
X57587Y7900D01*
X57480Y8192D01*
X57533Y8400D01*
X57640Y8525D01*
X57800Y8567D01*
X57960Y8525D01*
X58120Y8400D01*
G01X59200Y6900D02*
Y8567D01*
G01Y8108D02*
X59280Y8317D01*
X59413Y8483D01*
X59600Y8567D01*
X59787Y8483D01*
X59920Y8317D01*
X60000Y8108D01*
Y6900D01*
G01Y8108D02*
X60080Y8317D01*
X60213Y8483D01*
X60400Y8567D01*
X60587Y8483D01*
X60720Y8317D01*
X60800Y8067D01*
Y6900D01*
G01X62200Y8567D02*
Y6900D01*
G01Y9233D02*
X62147Y9275D01*
Y9358D01*
X62200Y9400D01*
X62253Y9358D01*
Y9275D01*
X62200Y9233D01*
G01X63947Y6900D02*
Y8567D01*
G01Y8150D02*
X64053Y8358D01*
X64213Y8525D01*
X64427Y8567D01*
X64613Y8525D01*
X64773Y8358D01*
X64853Y8067D01*
Y6900D01*
G01X68267D02*
Y9400D01*
X68907D01*
X69120Y9275D01*
X69280Y8983D01*
X69333Y8650D01*
X69280Y8317D01*
X69147Y8067D01*
X68907Y7942D01*
X68267D01*
G01X71000Y6900D02*
Y9400D01*
X70680Y8900D01*
G01Y6900D02*
X71320D01*
G01X72613D02*
Y9400D01*
X73147D01*
X73360Y9275D01*
X73520Y9108D01*
X73653Y8858D01*
X73760Y8567D01*
X73787Y8150D01*
X73760Y7733D01*
X73653Y7442D01*
X73520Y7192D01*
X73360Y7025D01*
X73147Y6900D01*
X72613D01*
G01X75987Y9192D02*
X75827Y9317D01*
X75640Y9400D01*
X75427D01*
X75187Y9275D01*
X75000Y9067D01*
X74867Y8817D01*
X74760Y8400D01*
X74733Y8025D01*
X74787Y7650D01*
X74867Y7400D01*
X75027Y7150D01*
X75213Y6983D01*
X75400Y6900D01*
X75587D01*
X75773Y6983D01*
X75933Y7108D01*
X76067Y7275D01*
G01X78133Y6900D02*
X77067D01*
Y9400D01*
X78133D01*
G01X77707Y8192D02*
X77067D01*
G01X81493Y8983D02*
X81653Y9233D01*
X81840Y9358D01*
X82053Y9400D01*
X82320Y9317D01*
X82507Y9108D01*
X82560Y8858D01*
X82533Y8608D01*
X82427Y8400D01*
X81893Y7983D01*
X81653Y7692D01*
X81493Y7275D01*
X81440Y6900D01*
X82560D01*
G01X84200Y9400D02*
X83987Y9317D01*
X83827Y9108D01*
X83720Y8858D01*
X83640Y8525D01*
X83613Y8150D01*
X83640Y7775D01*
X83720Y7442D01*
X83827Y7192D01*
X83987Y6983D01*
X84200Y6900D01*
X84413Y6983D01*
X84573Y7192D01*
X84680Y7442D01*
X84760Y7775D01*
X84787Y8150D01*
X84760Y8525D01*
X84680Y8858D01*
X84573Y9108D01*
X84413Y9317D01*
X84200Y9400D01*
G01X85893Y8983D02*
X86053Y9233D01*
X86240Y9358D01*
X86453Y9400D01*
X86720Y9317D01*
X86907Y9108D01*
X86960Y8858D01*
X86933Y8608D01*
X86827Y8400D01*
X86293Y7983D01*
X86053Y7692D01*
X85893Y7275D01*
X85840Y6900D01*
X86960D01*
G01X88920D02*
Y9400D01*
X87933Y7608D01*
X89267D01*
G01X90453Y7733D02*
X91147D01*
G01X92493Y8983D02*
X92653Y9233D01*
X92840Y9358D01*
X93053Y9400D01*
X93320Y9317D01*
X93507Y9108D01*
X93560Y8858D01*
X93533Y8608D01*
X93427Y8400D01*
X92893Y7983D01*
X92653Y7692D01*
X92493Y7275D01*
X92440Y6900D01*
X93560D01*
G01X95200Y9400D02*
X94987Y9317D01*
X94827Y9108D01*
X94720Y8858D01*
X94640Y8525D01*
X94613Y8150D01*
X94640Y7775D01*
X94720Y7442D01*
X94827Y7192D01*
X94987Y6983D01*
X95200Y6900D01*
X95413Y6983D01*
X95573Y7192D01*
X95680Y7442D01*
X95760Y7775D01*
X95787Y8150D01*
X95760Y8525D01*
X95680Y8858D01*
X95573Y9108D01*
X95413Y9317D01*
X95200Y9400D01*
G01X96893Y8983D02*
X97053Y9233D01*
X97240Y9358D01*
X97453Y9400D01*
X97720Y9317D01*
X97907Y9108D01*
X97960Y8858D01*
X97933Y8608D01*
X97827Y8400D01*
X97293Y7983D01*
X97053Y7692D01*
X96893Y7275D01*
X96840Y6900D01*
X97960D01*
G01X99013Y7275D02*
X99173Y7067D01*
X99360Y6942D01*
X99600Y6900D01*
X99840Y6983D01*
X100027Y7150D01*
X100160Y7442D01*
X100187Y7775D01*
X100133Y8108D01*
X100000Y8317D01*
X99813Y8483D01*
X99627Y8525D01*
X99440Y8483D01*
X99200Y8317D01*
X99280Y9400D01*
X100000D01*
G01X33800Y12500D02*
Y22900D01*
X49000D01*
Y12500D01*
X33800D01*
G01X39767Y23900D02*
X39900Y23650D01*
X40060Y23483D01*
X40247Y23400D01*
X40460Y23483D01*
X40620Y23650D01*
X40780Y23900D01*
X40833Y24233D01*
Y25900D01*
G01X42447Y23400D02*
X42500Y23942D01*
X42580Y24400D01*
X42687Y24817D01*
X42820Y25275D01*
X43033Y25900D01*
X41967D01*
G01X17760Y71150D02*
X18293D01*
Y70400D01*
X18133Y70150D01*
X17947Y69983D01*
X17680Y69900D01*
X17413Y69983D01*
X17227Y70150D01*
X17067Y70400D01*
X16960Y70692D01*
X16907Y71025D01*
Y71317D01*
X16960Y71567D01*
X17067Y71858D01*
X17227Y72108D01*
X17387Y72275D01*
X17600Y72400D01*
X17787D01*
X18000Y72317D01*
X18160Y72150D01*
G01X19187Y69900D02*
Y72400D01*
X20413Y69900D01*
Y72400D01*
G01X21413Y69900D02*
Y72400D01*
X21947D01*
X22160Y72275D01*
X22320Y72108D01*
X22453Y71858D01*
X22560Y71567D01*
X22587Y71150D01*
X22560Y70733D01*
X22453Y70442D01*
X22320Y70192D01*
X22160Y70025D01*
X21947Y69900D01*
X21413D01*
G01X11500Y79100D02*
Y72600D01*
X28500D01*
Y74100D01*
Y79100D01*
G01X16133Y94600D02*
X16800Y92100D01*
X17467Y94600D01*
G01X18680D02*
X19320D01*
G01X19000D02*
Y92100D01*
G01X18680D02*
X19320D01*
G01X20587D02*
Y94600D01*
X21813Y92100D01*
Y94600D01*
G01X12300Y103800D02*
Y114200D01*
X27500D01*
Y103800D01*
X12300D01*
G01X15933Y103600D02*
X16600Y101100D01*
X17267Y103600D01*
G01X19387Y103392D02*
X19227Y103517D01*
X19040Y103600D01*
X18827D01*
X18587Y103475D01*
X18400Y103267D01*
X18267Y103017D01*
X18160Y102600D01*
X18133Y102225D01*
X18187Y101850D01*
X18267Y101600D01*
X18427Y101350D01*
X18613Y101183D01*
X18800Y101100D01*
X18987D01*
X19173Y101183D01*
X19333Y101308D01*
X19467Y101475D01*
G01X21000Y101100D02*
X20787Y101142D01*
X20600Y101308D01*
X20440Y101558D01*
X20333Y101850D01*
X20280Y102183D01*
Y102517D01*
X20333Y102850D01*
X20440Y103142D01*
X20600Y103392D01*
X20787Y103558D01*
X21000Y103600D01*
X21213Y103558D01*
X21400Y103392D01*
X21560Y103142D01*
X21667Y102850D01*
X21720Y102517D01*
Y102183D01*
X21667Y101850D01*
X21560Y101558D01*
X21400Y101308D01*
X21213Y101142D01*
X21000Y101100D01*
G01X22587D02*
Y103600D01*
X23813Y101100D01*
Y103600D01*
G01X20000Y85160D02*
X22500Y84040D01*
G01Y85160D02*
X20000Y84040D01*
G01X28500Y90100D02*
Y96600D01*
X28400D01*
X11500D01*
Y90100D01*
G01X31900Y139700D02*
Y150100D01*
X47100D01*
Y139700D01*
X31900D01*
G01X18267Y115100D02*
X18400Y114850D01*
X18560Y114683D01*
X18747Y114600D01*
X18960Y114683D01*
X19120Y114850D01*
X19280Y115100D01*
X19333Y115433D01*
Y117100D01*
G01X21320Y114600D02*
Y117100D01*
X20333Y115308D01*
X21667D01*
G01X37867Y150800D02*
X38000Y150550D01*
X38160Y150383D01*
X38347Y150300D01*
X38560Y150383D01*
X38720Y150550D01*
X38880Y150800D01*
X38933Y151133D01*
Y152800D01*
G01X40600Y150300D02*
Y152800D01*
X40280Y152300D01*
G01Y150300D02*
X40920D01*
G01X60700Y17300D02*
X66300D01*
G01X50460Y14250D02*
X50993D01*
Y13500D01*
X50833Y13250D01*
X50647Y13083D01*
X50380Y13000D01*
X50113Y13083D01*
X49927Y13250D01*
X49767Y13500D01*
X49660Y13792D01*
X49607Y14125D01*
Y14417D01*
X49660Y14667D01*
X49767Y14958D01*
X49927Y15208D01*
X50087Y15375D01*
X50300Y15500D01*
X50487D01*
X50700Y15417D01*
X50860Y15250D01*
G01X51887Y13000D02*
Y15500D01*
X53113Y13000D01*
Y15500D01*
G01X54113Y13000D02*
Y15500D01*
X54647D01*
X54860Y15375D01*
X55020Y15208D01*
X55153Y14958D01*
X55260Y14667D01*
X55287Y14250D01*
X55260Y13833D01*
X55153Y13542D01*
X55020Y13292D01*
X54860Y13125D01*
X54647Y13000D01*
X54113D01*
G01X63500Y14500D02*
X63287Y14542D01*
X63100Y14708D01*
X62940Y14958D01*
X62833Y15250D01*
X62780Y15583D01*
Y15917D01*
X62833Y16250D01*
X62940Y16542D01*
X63100Y16792D01*
X63287Y16958D01*
X63500Y17000D01*
X63713Y16958D01*
X63900Y16792D01*
X64060Y16542D01*
X64167Y16250D01*
X64220Y15917D01*
Y15583D01*
X64167Y15250D01*
X64060Y14958D01*
X63900Y14708D01*
X63713Y14542D01*
X63500Y14500D01*
G01X63713Y15167D02*
X64033Y14500D01*
G01X65113Y15000D02*
X65273Y14708D01*
X65487Y14542D01*
X65727Y14500D01*
X65940Y14542D01*
X66153Y14750D01*
X66287Y15000D01*
X66313Y15250D01*
X66260Y15542D01*
X66073Y15750D01*
X65887Y15833D01*
X65647D01*
G01X65887D02*
X66047Y15958D01*
X66180Y16167D01*
X66233Y16417D01*
X66180Y16667D01*
X66047Y16875D01*
X65807Y17000D01*
X65567Y16958D01*
X65327Y16792D01*
G01X54193Y20483D02*
X54353Y20733D01*
X54540Y20858D01*
X54753Y20900D01*
X55020Y20817D01*
X55207Y20608D01*
X55260Y20358D01*
X55233Y20108D01*
X55127Y19900D01*
X54593Y19483D01*
X54353Y19192D01*
X54193Y18775D01*
X54140Y18400D01*
X55260D01*
G01X60700Y29900D02*
X66300D01*
G01X54700Y26400D02*
Y28900D01*
X54380Y28400D01*
G01Y26400D02*
X55020D01*
G01X68613Y27400D02*
X68773Y27108D01*
X68987Y26942D01*
X69227Y26900D01*
X69440Y26942D01*
X69653Y27150D01*
X69787Y27400D01*
X69813Y27650D01*
X69760Y27942D01*
X69573Y28150D01*
X69387Y28233D01*
X69147D01*
G01X69387D02*
X69547Y28358D01*
X69680Y28567D01*
X69733Y28817D01*
X69680Y29067D01*
X69547Y29275D01*
X69307Y29400D01*
X69067Y29358D01*
X68827Y29192D01*
G01X44387Y77192D02*
X44227Y77317D01*
X44040Y77400D01*
X43827D01*
X43587Y77275D01*
X43400Y77067D01*
X43267Y76817D01*
X43160Y76400D01*
X43133Y76025D01*
X43187Y75650D01*
X43267Y75400D01*
X43427Y75150D01*
X43613Y74983D01*
X43800Y74900D01*
X43987D01*
X44173Y74983D01*
X44333Y75108D01*
X44467Y75275D01*
G01X46000Y74900D02*
Y77400D01*
X45680Y76900D01*
G01Y74900D02*
X46320D01*
G01X45267Y63400D02*
Y65900D01*
X45907D01*
X46120Y65775D01*
X46280Y65483D01*
X46333Y65150D01*
X46280Y64817D01*
X46147Y64567D01*
X45907Y64442D01*
X45267D01*
G01X48000Y63400D02*
Y65900D01*
X47680Y65400D01*
G01Y63400D02*
X48320D01*
G01X59200Y76400D02*
Y78900D01*
X58880Y78400D01*
G01Y76400D02*
X59520D01*
G01X69767Y57700D02*
Y60200D01*
X70433D01*
X70647Y60075D01*
X70780Y59908D01*
X70833Y59575D01*
X70780Y59242D01*
X70620Y59033D01*
X70433Y58908D01*
X69767D01*
G01X70433D02*
X70833Y57700D01*
G01X72047Y57992D02*
X72233Y57783D01*
X72447Y57700D01*
X72660Y57783D01*
X72847Y58033D01*
X72980Y58408D01*
X73033Y58783D01*
Y59242D01*
X72980Y59617D01*
X72847Y59950D01*
X72687Y60117D01*
X72500Y60200D01*
X72287Y60117D01*
X72127Y59950D01*
X72020Y59700D01*
X71967Y59367D01*
X72020Y59075D01*
X72153Y58783D01*
X72313Y58617D01*
X72500Y58575D01*
X72713Y58658D01*
X72873Y58867D01*
X73033Y59242D01*
G01X61500Y85700D02*
Y80100D01*
G01X67113Y90900D02*
X67273Y90608D01*
X67487Y90442D01*
X67727Y90400D01*
X67940Y90442D01*
X68153Y90650D01*
X68287Y90900D01*
X68313Y91150D01*
X68260Y91442D01*
X68073Y91650D01*
X67887Y91733D01*
X67647D01*
G01X67887D02*
X68047Y91858D01*
X68180Y92067D01*
X68233Y92317D01*
X68180Y92567D01*
X68047Y92775D01*
X67807Y92900D01*
X67567Y92858D01*
X67327Y92692D01*
G01X61767Y138900D02*
Y141400D01*
X62433D01*
X62647Y141275D01*
X62780Y141108D01*
X62833Y140775D01*
X62780Y140442D01*
X62620Y140233D01*
X62433Y140108D01*
X61767D01*
G01X62433D02*
X62833Y138900D01*
G01X63993Y140983D02*
X64153Y141233D01*
X64340Y141358D01*
X64553Y141400D01*
X64820Y141317D01*
X65007Y141108D01*
X65060Y140858D01*
X65033Y140608D01*
X64927Y140400D01*
X64393Y139983D01*
X64153Y139692D01*
X63993Y139275D01*
X63940Y138900D01*
X65060D01*
G01X42833Y139100D02*
X43500Y136600D01*
X44167Y139100D01*
G01X46287Y138892D02*
X46127Y139017D01*
X45940Y139100D01*
X45727D01*
X45487Y138975D01*
X45300Y138767D01*
X45167Y138517D01*
X45060Y138100D01*
X45033Y137725D01*
X45087Y137350D01*
X45167Y137100D01*
X45327Y136850D01*
X45513Y136683D01*
X45700Y136600D01*
X45887D01*
X46073Y136683D01*
X46233Y136808D01*
X46367Y136975D01*
G01X48487Y138892D02*
X48327Y139017D01*
X48140Y139100D01*
X47927D01*
X47687Y138975D01*
X47500Y138767D01*
X47367Y138517D01*
X47260Y138100D01*
X47233Y137725D01*
X47287Y137350D01*
X47367Y137100D01*
X47527Y136850D01*
X47713Y136683D01*
X47900Y136600D01*
X48087D01*
X48273Y136683D01*
X48433Y136808D01*
X48567Y136975D01*
G01X44267Y116900D02*
Y119400D01*
X44933D01*
X45147Y119275D01*
X45280Y119108D01*
X45333Y118775D01*
X45280Y118442D01*
X45120Y118233D01*
X44933Y118108D01*
X44267D01*
G01X44933D02*
X45333Y116900D01*
G01X47320D02*
Y119400D01*
X46333Y117608D01*
X47667D01*
G01X61767Y116900D02*
Y119400D01*
X62433D01*
X62647Y119275D01*
X62780Y119108D01*
X62833Y118775D01*
X62780Y118442D01*
X62620Y118233D01*
X62433Y118108D01*
X61767D01*
G01X62433D02*
X62833Y116900D01*
G01X63993Y117942D02*
X64180Y118233D01*
X64340Y118400D01*
X64553Y118483D01*
X64740Y118400D01*
X64873Y118233D01*
X64980Y117983D01*
X65007Y117692D01*
X64980Y117442D01*
X64873Y117192D01*
X64713Y116983D01*
X64527Y116900D01*
X64313Y116983D01*
X64127Y117233D01*
X64020Y117608D01*
X63993Y118025D01*
X64047Y118567D01*
X64127Y118858D01*
X64260Y119150D01*
X64447Y119358D01*
X64633Y119400D01*
X64820Y119317D01*
X64953Y119108D01*
G01X81200Y17800D02*
X86800D01*
G01X82500Y15100D02*
X82287Y15142D01*
X82100Y15308D01*
X81940Y15558D01*
X81833Y15850D01*
X81780Y16183D01*
Y16517D01*
X81833Y16850D01*
X81940Y17142D01*
X82100Y17392D01*
X82287Y17558D01*
X82500Y17600D01*
X82713Y17558D01*
X82900Y17392D01*
X83060Y17142D01*
X83167Y16850D01*
X83220Y16517D01*
Y16183D01*
X83167Y15850D01*
X83060Y15558D01*
X82900Y15308D01*
X82713Y15142D01*
X82500Y15100D01*
G01X82713Y15767D02*
X83033Y15100D01*
G01X85020D02*
Y17600D01*
X84033Y15808D01*
X85367D01*
G01X74693Y20983D02*
X74853Y21233D01*
X75040Y21358D01*
X75253Y21400D01*
X75520Y21317D01*
X75707Y21108D01*
X75760Y20858D01*
X75733Y20608D01*
X75627Y20400D01*
X75093Y19983D01*
X74853Y19692D01*
X74693Y19275D01*
X74640Y18900D01*
X75760D01*
G01X88113D02*
X88273Y18608D01*
X88487Y18442D01*
X88727Y18400D01*
X88940Y18442D01*
X89153Y18650D01*
X89287Y18900D01*
X89313Y19150D01*
X89260Y19442D01*
X89073Y19650D01*
X88887Y19733D01*
X88647D01*
G01X88887D02*
X89047Y19858D01*
X89180Y20067D01*
X89233Y20317D01*
X89180Y20567D01*
X89047Y20775D01*
X88807Y20900D01*
X88567Y20858D01*
X88327Y20692D01*
G01X81200Y30400D02*
X86800D01*
G01X75700Y29400D02*
Y31900D01*
X75380Y31400D01*
G01Y29400D02*
X76020D01*
G01X76367Y40900D02*
Y43400D01*
X77033D01*
X77247Y43275D01*
X77380Y43108D01*
X77433Y42775D01*
X77380Y42442D01*
X77220Y42233D01*
X77033Y42108D01*
X76367D01*
G01X77033D02*
X77433Y40900D01*
G01X79100D02*
Y43400D01*
X78780Y42900D01*
G01Y40900D02*
X79420D01*
G01X80793Y42983D02*
X80953Y43233D01*
X81140Y43358D01*
X81353Y43400D01*
X81620Y43317D01*
X81807Y43108D01*
X81860Y42858D01*
X81833Y42608D01*
X81727Y42400D01*
X81193Y41983D01*
X80953Y41692D01*
X80793Y41275D01*
X80740Y40900D01*
X81860D01*
G01X87387Y63092D02*
X87227Y63217D01*
X87040Y63300D01*
X86827D01*
X86587Y63175D01*
X86400Y62967D01*
X86267Y62717D01*
X86160Y62300D01*
X86133Y61925D01*
X86187Y61550D01*
X86267Y61300D01*
X86427Y61050D01*
X86613Y60883D01*
X86800Y60800D01*
X86987D01*
X87173Y60883D01*
X87333Y61008D01*
X87467Y61175D01*
G01X88413Y61300D02*
X88573Y61008D01*
X88787Y60842D01*
X89027Y60800D01*
X89240Y60842D01*
X89453Y61050D01*
X89587Y61300D01*
X89613Y61550D01*
X89560Y61842D01*
X89373Y62050D01*
X89187Y62133D01*
X88947D01*
G01X89187D02*
X89347Y62258D01*
X89480Y62467D01*
X89533Y62717D01*
X89480Y62967D01*
X89347Y63175D01*
X89107Y63300D01*
X88867Y63258D01*
X88627Y63092D01*
G01X88200Y72900D02*
Y75400D01*
X87880Y74900D01*
G01Y72900D02*
X88520D01*
G01X95193Y74983D02*
X95353Y75233D01*
X95540Y75358D01*
X95753Y75400D01*
X96020Y75317D01*
X96207Y75108D01*
X96260Y74858D01*
X96233Y74608D01*
X96127Y74400D01*
X95593Y73983D01*
X95353Y73692D01*
X95193Y73275D01*
X95140Y72900D01*
X96260D01*
G01X74193Y77483D02*
X74353Y77733D01*
X74540Y77858D01*
X74753Y77900D01*
X75020Y77817D01*
X75207Y77608D01*
X75260Y77358D01*
X75233Y77108D01*
X75127Y76900D01*
X74593Y76483D01*
X74353Y76192D01*
X74193Y75775D01*
X74140Y75400D01*
X75260D01*
G01X97967Y61000D02*
Y63500D01*
X98633D01*
X98847Y63375D01*
X98980Y63208D01*
X99033Y62875D01*
X98980Y62542D01*
X98820Y62333D01*
X98633Y62208D01*
X97967D01*
G01X98633D02*
X99033Y61000D01*
G01X100700D02*
Y63500D01*
X100380Y63000D01*
G01Y61000D02*
X101020D01*
G01X102900D02*
Y63500D01*
X102580Y63000D01*
G01Y61000D02*
X103220D01*
G01X74100Y85700D02*
Y80100D01*
G01X85500Y85700D02*
Y80100D01*
G01X98100Y85700D02*
Y80100D01*
G01X99300Y80900D02*
X99087Y80942D01*
X98900Y81108D01*
X98740Y81358D01*
X98633Y81650D01*
X98580Y81983D01*
Y82317D01*
X98633Y82650D01*
X98740Y82942D01*
X98900Y83192D01*
X99087Y83358D01*
X99300Y83400D01*
X99513Y83358D01*
X99700Y83192D01*
X99860Y82942D01*
X99967Y82650D01*
X100020Y82317D01*
Y81983D01*
X99967Y81650D01*
X99860Y81358D01*
X99700Y81108D01*
X99513Y80942D01*
X99300Y80900D01*
G01X99513Y81567D02*
X99833Y80900D01*
G01X101500D02*
Y83400D01*
X101180Y82900D01*
G01Y80900D02*
X101820D01*
G01X89613Y91500D02*
X89773Y91208D01*
X89987Y91042D01*
X90227Y91000D01*
X90440Y91042D01*
X90653Y91250D01*
X90787Y91500D01*
X90813Y91750D01*
X90760Y92042D01*
X90573Y92250D01*
X90387Y92333D01*
X90147D01*
G01X90387D02*
X90547Y92458D01*
X90680Y92667D01*
X90733Y92917D01*
X90680Y93167D01*
X90547Y93375D01*
X90307Y93500D01*
X90067Y93458D01*
X89827Y93292D01*
G01X75300Y80900D02*
X75087Y80942D01*
X74900Y81108D01*
X74740Y81358D01*
X74633Y81650D01*
X74580Y81983D01*
Y82317D01*
X74633Y82650D01*
X74740Y82942D01*
X74900Y83192D01*
X75087Y83358D01*
X75300Y83400D01*
X75513Y83358D01*
X75700Y83192D01*
X75860Y82942D01*
X75967Y82650D01*
X76020Y82317D01*
Y81983D01*
X75967Y81650D01*
X75860Y81358D01*
X75700Y81108D01*
X75513Y80942D01*
X75300Y80900D01*
G01X75513Y81567D02*
X75833Y80900D01*
G01X76993Y82983D02*
X77153Y83233D01*
X77340Y83358D01*
X77553Y83400D01*
X77820Y83317D01*
X78007Y83108D01*
X78060Y82858D01*
X78033Y82608D01*
X77927Y82400D01*
X77393Y81983D01*
X77153Y81692D01*
X76993Y81275D01*
X76940Y80900D01*
X78060D01*
G01X98267Y139400D02*
Y141900D01*
X98933D01*
X99147Y141775D01*
X99280Y141608D01*
X99333Y141275D01*
X99280Y140942D01*
X99120Y140733D01*
X98933Y140608D01*
X98267D01*
G01X98933D02*
X99333Y139400D01*
G01X101000D02*
Y141900D01*
X100680Y141400D01*
G01Y139400D02*
X101320D01*
G01X79767Y138900D02*
Y141400D01*
X80433D01*
X80647Y141275D01*
X80780Y141108D01*
X80833Y140775D01*
X80780Y140442D01*
X80620Y140233D01*
X80433Y140108D01*
X79767D01*
G01X80433D02*
X80833Y138900D01*
G01X81913Y139400D02*
X82073Y139108D01*
X82287Y138942D01*
X82527Y138900D01*
X82740Y138942D01*
X82953Y139150D01*
X83087Y139400D01*
X83113Y139650D01*
X83060Y139942D01*
X82873Y140150D01*
X82687Y140233D01*
X82447D01*
G01X82687D02*
X82847Y140358D01*
X82980Y140567D01*
X83033Y140817D01*
X82980Y141067D01*
X82847Y141275D01*
X82607Y141400D01*
X82367Y141358D01*
X82127Y141192D01*
G01X98267Y116900D02*
Y119400D01*
X98933D01*
X99147Y119275D01*
X99280Y119108D01*
X99333Y118775D01*
X99280Y118442D01*
X99120Y118233D01*
X98933Y118108D01*
X98267D01*
G01X98933D02*
X99333Y116900D01*
G01X100413Y117275D02*
X100573Y117067D01*
X100760Y116942D01*
X101000Y116900D01*
X101240Y116983D01*
X101427Y117150D01*
X101560Y117442D01*
X101587Y117775D01*
X101533Y118108D01*
X101400Y118317D01*
X101213Y118483D01*
X101027Y118525D01*
X100840Y118483D01*
X100600Y118317D01*
X100680Y119400D01*
X101400D01*
G01X79267Y116900D02*
Y119400D01*
X79933D01*
X80147Y119275D01*
X80280Y119108D01*
X80333Y118775D01*
X80280Y118442D01*
X80120Y118233D01*
X79933Y118108D01*
X79267D01*
G01X79933D02*
X80333Y116900D01*
G01X81947D02*
X82000Y117442D01*
X82080Y117900D01*
X82187Y118317D01*
X82320Y118775D01*
X82533Y119400D01*
X81467D01*
G01X105767Y18900D02*
Y21400D01*
X106433D01*
X106647Y21275D01*
X106780Y21108D01*
X106833Y20775D01*
X106780Y20442D01*
X106620Y20233D01*
X106433Y20108D01*
X105767D01*
G01X106433D02*
X106833Y18900D01*
G01X108500D02*
Y21400D01*
X108180Y20900D01*
G01Y18900D02*
X108820D01*
G01X111020D02*
Y21400D01*
X110033Y19608D01*
X111367D01*
G01X116687Y74292D02*
X116527Y74417D01*
X116340Y74500D01*
X116127D01*
X115887Y74375D01*
X115700Y74167D01*
X115567Y73917D01*
X115460Y73500D01*
X115433Y73125D01*
X115487Y72750D01*
X115567Y72500D01*
X115727Y72250D01*
X115913Y72083D01*
X116100Y72000D01*
X116287D01*
X116473Y72083D01*
X116633Y72208D01*
X116767Y72375D01*
G01X117793Y74083D02*
X117953Y74333D01*
X118140Y74458D01*
X118353Y74500D01*
X118620Y74417D01*
X118807Y74208D01*
X118860Y73958D01*
X118833Y73708D01*
X118727Y73500D01*
X118193Y73083D01*
X117953Y72792D01*
X117793Y72375D01*
X117740Y72000D01*
X118860D01*
G01X111867Y61300D02*
Y63800D01*
X112533D01*
X112747Y63675D01*
X112880Y63508D01*
X112933Y63175D01*
X112880Y62842D01*
X112720Y62633D01*
X112533Y62508D01*
X111867D01*
G01X112533D02*
X112933Y61300D01*
G01X114067Y63800D02*
Y61300D01*
X115133D01*
G01X119713Y106800D02*
Y109300D01*
X120247D01*
X120460Y109175D01*
X120620Y109008D01*
X120753Y108758D01*
X120860Y108467D01*
X120887Y108050D01*
X120860Y107633D01*
X120753Y107342D01*
X120620Y107092D01*
X120460Y106925D01*
X120247Y106800D01*
X119713D01*
G01X122500D02*
Y109300D01*
X122180Y108800D01*
G01Y106800D02*
X122820D01*
G01X117767Y139400D02*
Y141900D01*
X118433D01*
X118647Y141775D01*
X118780Y141608D01*
X118833Y141275D01*
X118780Y140942D01*
X118620Y140733D01*
X118433Y140608D01*
X117767D01*
G01X118433D02*
X118833Y139400D01*
G01X120500D02*
X120687Y139442D01*
X120900Y139567D01*
X121033Y139775D01*
X121087Y140067D01*
X121033Y140358D01*
X120873Y140608D01*
X120633Y140733D01*
X120367D01*
X120207Y140817D01*
X120073Y141025D01*
X120020Y141317D01*
X120100Y141608D01*
X120287Y141817D01*
X120500Y141900D01*
X120713Y141817D01*
X120900Y141608D01*
X120980Y141317D01*
X120927Y141025D01*
X120793Y140817D01*
X120633Y140733D01*
X120367D01*
X120127Y140608D01*
X119967Y140358D01*
X119913Y140067D01*
X119967Y139775D01*
X120100Y139567D01*
X120313Y139442D01*
X120500Y139400D01*
G01X144560Y36750D02*
X145093D01*
Y36000D01*
X144933Y35750D01*
X144747Y35583D01*
X144480Y35500D01*
X144213Y35583D01*
X144027Y35750D01*
X143867Y36000D01*
X143760Y36292D01*
X143707Y36625D01*
Y36917D01*
X143760Y37167D01*
X143867Y37458D01*
X144027Y37708D01*
X144187Y37875D01*
X144400Y38000D01*
X144587D01*
X144800Y37917D01*
X144960Y37750D01*
G01X145987Y35500D02*
Y38000D01*
X147213Y35500D01*
Y38000D01*
G01X148213Y35500D02*
Y38000D01*
X148747D01*
X148960Y37875D01*
X149120Y37708D01*
X149253Y37458D01*
X149360Y37167D01*
X149387Y36750D01*
X149360Y36333D01*
X149253Y36042D01*
X149120Y35792D01*
X148960Y35625D01*
X148747Y35500D01*
X148213D01*
G01X141500Y50960D02*
X144000Y49840D01*
G01Y50960D02*
X141500Y49840D01*
G01X133000Y44900D02*
Y38400D01*
X150000D01*
Y39900D01*
Y44900D01*
G01X142633Y65600D02*
X143300Y63100D01*
X143967Y65600D01*
G01X145500Y63100D02*
X145287Y63142D01*
X145100Y63308D01*
X144940Y63558D01*
X144833Y63850D01*
X144780Y64183D01*
Y64517D01*
X144833Y64850D01*
X144940Y65142D01*
X145100Y65392D01*
X145287Y65558D01*
X145500Y65600D01*
X145713Y65558D01*
X145900Y65392D01*
X146060Y65142D01*
X146167Y64850D01*
X146220Y64517D01*
Y64183D01*
X146167Y63850D01*
X146060Y63558D01*
X145900Y63308D01*
X145713Y63142D01*
X145500Y63100D01*
G01X147113Y65600D02*
Y63808D01*
X147220Y63433D01*
X147433Y63183D01*
X147700Y63100D01*
X147967Y63183D01*
X148180Y63433D01*
X148287Y63808D01*
Y65600D01*
G01X149900D02*
Y63100D01*
G01X149287Y65600D02*
X150513D01*
G01X133900Y73700D02*
Y84100D01*
X149100D01*
Y73700D01*
X133900D01*
G01X130633Y73300D02*
X131300Y70800D01*
X131967Y73300D01*
G01X133500Y70800D02*
X133287Y70842D01*
X133100Y71008D01*
X132940Y71258D01*
X132833Y71550D01*
X132780Y71883D01*
Y72217D01*
X132833Y72550D01*
X132940Y72842D01*
X133100Y73092D01*
X133287Y73258D01*
X133500Y73300D01*
X133713Y73258D01*
X133900Y73092D01*
X134060Y72842D01*
X134167Y72550D01*
X134220Y72217D01*
Y71883D01*
X134167Y71550D01*
X134060Y71258D01*
X133900Y71008D01*
X133713Y70842D01*
X133500Y70800D01*
G01X135113Y73300D02*
Y71508D01*
X135220Y71133D01*
X135433Y70883D01*
X135700Y70800D01*
X135967Y70883D01*
X136180Y71133D01*
X136287Y71508D01*
Y73300D01*
G01X137900D02*
Y70800D01*
G01X137287Y73300D02*
X138513D01*
G01X134767Y63400D02*
X134900Y63150D01*
X135060Y62983D01*
X135247Y62900D01*
X135460Y62983D01*
X135620Y63150D01*
X135780Y63400D01*
X135833Y63733D01*
Y65400D01*
G01X136993Y63942D02*
X137180Y64233D01*
X137340Y64400D01*
X137553Y64483D01*
X137740Y64400D01*
X137873Y64233D01*
X137980Y63983D01*
X138007Y63692D01*
X137980Y63442D01*
X137873Y63192D01*
X137713Y62983D01*
X137527Y62900D01*
X137313Y62983D01*
X137127Y63233D01*
X137020Y63608D01*
X136993Y64025D01*
X137047Y64567D01*
X137127Y64858D01*
X137260Y65150D01*
X137447Y65358D01*
X137633Y65400D01*
X137820Y65317D01*
X137953Y65108D01*
G01X150000Y55900D02*
Y62400D01*
X149900D01*
X133000D01*
Y55900D01*
G01X146460Y96650D02*
X146993D01*
Y95900D01*
X146833Y95650D01*
X146647Y95483D01*
X146380Y95400D01*
X146113Y95483D01*
X145927Y95650D01*
X145767Y95900D01*
X145660Y96192D01*
X145607Y96525D01*
Y96817D01*
X145660Y97067D01*
X145767Y97358D01*
X145927Y97608D01*
X146087Y97775D01*
X146300Y97900D01*
X146487D01*
X146700Y97817D01*
X146860Y97650D01*
G01X147887Y95400D02*
Y97900D01*
X149113Y95400D01*
Y97900D01*
G01X150113Y95400D02*
Y97900D01*
X150647D01*
X150860Y97775D01*
X151020Y97608D01*
X151153Y97358D01*
X151260Y97067D01*
X151287Y96650D01*
X151260Y96233D01*
X151153Y95942D01*
X151020Y95692D01*
X150860Y95525D01*
X150647Y95400D01*
X150113D01*
G01X140167Y84700D02*
X140300Y84450D01*
X140460Y84283D01*
X140647Y84200D01*
X140860Y84283D01*
X141020Y84450D01*
X141180Y84700D01*
X141233Y85033D01*
Y86700D01*
G01X142313Y84575D02*
X142473Y84367D01*
X142660Y84242D01*
X142900Y84200D01*
X143140Y84283D01*
X143327Y84450D01*
X143460Y84742D01*
X143487Y85075D01*
X143433Y85408D01*
X143300Y85617D01*
X143113Y85783D01*
X142927Y85825D01*
X142740Y85783D01*
X142500Y85617D01*
X142580Y86700D01*
X143300D01*
G01X132000Y105400D02*
Y98900D01*
X149000D01*
Y100400D01*
Y105400D01*
G01X145633Y126000D02*
X146300Y123500D01*
X146967Y126000D01*
G01X148180D02*
X148820D01*
G01X148500D02*
Y123500D01*
G01X148180D02*
X148820D01*
G01X150087D02*
Y126000D01*
X151313Y123500D01*
Y126000D01*
G01X138767Y124000D02*
X138900Y123750D01*
X139060Y123583D01*
X139247Y123500D01*
X139460Y123583D01*
X139620Y123750D01*
X139780Y124000D01*
X139833Y124333D01*
Y126000D01*
G01X140993Y125583D02*
X141153Y125833D01*
X141340Y125958D01*
X141553Y126000D01*
X141820Y125917D01*
X142007Y125708D01*
X142060Y125458D01*
X142033Y125208D01*
X141927Y125000D01*
X141393Y124583D01*
X141153Y124292D01*
X140993Y123875D01*
X140940Y123500D01*
X142060D01*
G01X140500Y111460D02*
X143000Y110340D01*
G01Y111460D02*
X140500Y110340D01*
G01X149000Y116400D02*
Y122900D01*
X148900D01*
X132000D01*
Y116400D01*
G54D11*
G01X19750Y56200D02*
Y40200D01*
G01D02*
X12250D01*
G01D02*
Y56200D01*
G01X52700Y78150D02*
X36700D01*
G01D02*
Y85650D01*
G01X12250Y56200D02*
X19750D01*
G01X36700Y85650D02*
X52700D01*
G01X43250Y110100D02*
X35750D01*
G01D02*
Y126100D01*
G01D02*
X43250D01*
G01X61250Y44200D02*
Y60200D01*
G01X68750D02*
Y44200D01*
G01D02*
X61250D01*
G01X52700Y85650D02*
Y78150D01*
G01X61250Y60200D02*
X68750D01*
G01X43250Y126100D02*
Y110100D01*
G01X60750Y126100D02*
Y110100D01*
G01D02*
X53250D01*
G01D02*
Y126100D01*
G01X60750Y148600D02*
Y132600D01*
G01D02*
X53250D01*
G01D02*
Y148600D01*
G01Y126100D02*
X60750D01*
G01X53250Y148600D02*
X60750D01*
G01X95250Y60100D02*
Y44100D01*
G01D02*
X87750D01*
G01D02*
Y60100D01*
G01X82750D02*
Y44100D01*
G01D02*
X75250D01*
G01D02*
Y60100D01*
G01X116200Y22150D02*
X100200D01*
G01D02*
Y29650D01*
G01D02*
X116200D01*
G01X87750Y60100D02*
X95250D01*
G01X75250D02*
X82750D01*
G01X97250Y126100D02*
Y110100D01*
G01D02*
X89750D01*
G01D02*
Y126100D01*
G01X78250D02*
Y110100D01*
G01D02*
X70750D01*
G01D02*
Y126100D01*
G01X97250Y148600D02*
Y132600D01*
G01D02*
X89750D01*
G01D02*
Y148600D01*
G01X78250D02*
Y132600D01*
G01D02*
X70750D01*
G01D02*
Y148600D01*
G01X89750Y126100D02*
X97250D01*
G01X70750D02*
X78250D01*
G01X89750Y148600D02*
X97250D01*
G01X70750D02*
X78250D01*
G01X108250Y60100D02*
Y44100D01*
G01D02*
X100750D01*
G01D02*
Y60100D01*
G01X116200Y29650D02*
Y22150D01*
G01X121250Y60100D02*
Y44100D01*
G01D02*
X113750D01*
G01D02*
Y60100D01*
G01X125200Y75150D02*
X109200D01*
G01D02*
Y82650D01*
G01X125200D02*
Y75150D01*
G01X100750Y60100D02*
X108250D01*
G01X113750D02*
X121250D01*
G01X109200Y82650D02*
X125200D01*
G01X107750Y100500D02*
Y116300D01*
G01X118250D02*
Y100500D01*
G01D02*
X107750D01*
G01Y116300D02*
X112150D01*
G01D02*
X113000Y117150D01*
G01D02*
X113850Y116300D01*
G01D02*
X118250D01*
G01X116750Y148600D02*
Y132600D01*
G01D02*
X109250D01*
G01D02*
Y148600D01*
G01D02*
X116750D01*
G54D12*
G01X45000Y48022D02*
X36142D01*
G01X46378D02*
G03X40472Y53928I-5906J0D01*
G03X34567Y47825I1J-5909D01*
G03X40472Y42117I5899J194D01*
G03X46378Y48022I1J5905D01*
G01X41457Y38180D02*
X39488D01*
G01X34961Y57865D02*
X30630D01*
Y38180D01*
X31811D01*
G01X40472Y52550D02*
Y43494D01*
G01X45984Y57865D02*
X50315D01*
Y38180D01*
X49134D01*
M02*
